HIERARCHY
ROOT Hips
{
	OFFSET 0.000000 97.167313 0.000000
	CHANNELS 6 Xposition Yposition Zposition Xrotation Yrotation Zrotation
	JOINT Spine
	{
		OFFSET 0.000000 13.784798 0.064400
		CHANNELS 3 Xrotation Yrotation Zrotation
		JOINT Spine1
		{
			OFFSET 0.000000 12.037903 0.404700
			CHANNELS 3 Xrotation Yrotation Zrotation
			JOINT Spine2
			{
				OFFSET 0.000000 17.795601 0.420200
				CHANNELS 3 Xrotation Yrotation Zrotation
				JOINT Neck
				{
					OFFSET 0.000000 39.131302 11.954600
					CHANNELS 3 Xrotation Yrotation Zrotation
					JOINT Head
					{
						OFFSET 0.000000 14.456192 15.627699
						CHANNELS 3 Xrotation Yrotation Zrotation
						JOINT HeadTop_End
						{
							OFFSET 0.000000 15.703506 7.603401
							CHANNELS 3 Xrotation Yrotation Zrotation
							End Site
							{
								OFFSET 0.000000 17.447403 0.000000
							}
						}
					}
				}
				JOINT LeftShoulder
				{
					OFFSET 17.399500 24.608795 1.168800
					CHANNELS 3 Xrotation Yrotation Zrotation
					JOINT LeftArm
					{
						OFFSET 18.980635 5.765305 1.818600
						CHANNELS 3 Xrotation Yrotation Zrotation
						JOINT LeftForeArm
						{
							OFFSET 49.290169 0.000000 0.000000
							CHANNELS 3 Xrotation Yrotation Zrotation
							JOINT LeftHand
							{
								OFFSET 31.562012 0.000000 0.000000
								CHANNELS 3 Xrotation Yrotation Zrotation
								JOINT LeftHandThumb1
								{
									OFFSET 6.133995 -4.388519 7.076070
									CHANNELS 3 Xrotation Yrotation Zrotation
									JOINT LeftHandThumb2
									{
										OFFSET 6.037666 -3.485840 3.485847
										CHANNELS 3 Xrotation Yrotation Zrotation
										JOINT LeftHandThumb3
										{
											OFFSET 6.496506 -3.750763 3.750761
											CHANNELS 3 Xrotation Yrotation Zrotation
											JOINT LeftHandThumb4
											{
												OFFSET 5.616882 -3.242905 3.242910
												CHANNELS 3 Xrotation Yrotation Zrotation
												End Site
												{
													OFFSET -1.254608 7.132141 0.375429
												}
											}
										}
									}
								}
								JOINT LeftHandPinky1
								{
									OFFSET 18.920792 -0.453171 -11.426712
									CHANNELS 3 Xrotation Yrotation Zrotation
									JOINT LeftHandPinky2
									{
										OFFSET 4.919586 0.000000 0.000000
										CHANNELS 3 Xrotation Yrotation Zrotation
										JOINT LeftHandPinky3
										{
											OFFSET 5.233047 0.000000 0.000000
											CHANNELS 3 Xrotation Yrotation Zrotation
											JOINT LeftHandPinky4
											{
												OFFSET 5.571716 0.000000 0.000000
												CHANNELS 3 Xrotation Yrotation Zrotation
												End Site
												{
													OFFSET -3.459808 4.342407 -0.466164
												}
											}
										}
									}
								}
								JOINT LeftHandRing1
								{
									OFFSET 22.726120 -0.094986 -6.500475
									CHANNELS 3 Xrotation Yrotation Zrotation
									JOINT LeftHandRing2
									{
										OFFSET 6.408615 0.000000 0.000000
										CHANNELS 3 Xrotation Yrotation Zrotation
										JOINT LeftHandRing3
										{
											OFFSET 6.150223 0.000000 0.000000
											CHANNELS 3 Xrotation Yrotation Zrotation
											JOINT LeftHandRing4
											{
												OFFSET 6.145386 0.000000 0.000000
												CHANNELS 3 Xrotation Yrotation Zrotation
												End Site
												{
													OFFSET -3.671402 4.923981 -0.202372
												}
											}
										}
									}
								}
								JOINT LeftHandMiddle1
								{
									OFFSET 23.373947 0.000000 0.000001
									CHANNELS 3 Xrotation Yrotation Zrotation
									JOINT LeftHandMiddle2
									{
										OFFSET 6.996567 0.000000 0.000000
										CHANNELS 3 Xrotation Yrotation Zrotation
										JOINT LeftHandMiddle3
										{
											OFFSET 7.015945 0.000000 0.000000
											CHANNELS 3 Xrotation Yrotation Zrotation
											JOINT LeftHandMiddle4
											{
												OFFSET 7.721573 0.000000 0.000000
												CHANNELS 3 Xrotation Yrotation Zrotation
												End Site
												{
													OFFSET -4.651108 6.158463 0.251582
												}
											}
										}
									}
								}
								JOINT LeftHandIndex1
								{
									OFFSET 21.310577 -0.490082 6.209344
									CHANNELS 3 Xrotation Yrotation Zrotation
									JOINT LeftHandIndex2
									{
										OFFSET 7.536453 0.000000 0.000000
										CHANNELS 3 Xrotation Yrotation Zrotation
										JOINT LeftHandIndex3
										{
											OFFSET 7.512344 0.000000 0.000000
											CHANNELS 3 Xrotation Yrotation Zrotation
											JOINT LeftHandIndex4
											{
												OFFSET 10.212402 0.000000 0.000001
												CHANNELS 3 Xrotation Yrotation Zrotation
												End Site
												{
													OFFSET -5.180801 8.690506 1.388433
												}
											}
										}
									}
								}
							}
						}
					}
				}
				JOINT RightShoulder
				{
					OFFSET -17.399500 24.608795 1.168800
					CHANNELS 3 Xrotation Yrotation Zrotation
					JOINT RightArm
					{
						OFFSET -18.980635 5.765305 1.818600
						CHANNELS 3 Xrotation Yrotation Zrotation
						JOINT RightForeArm
						{
							OFFSET -49.290169 0.000000 0.000000
							CHANNELS 3 Xrotation Yrotation Zrotation
							JOINT RightHand
							{
								OFFSET -31.562012 0.000000 0.000000
								CHANNELS 3 Xrotation Yrotation Zrotation
								JOINT RightHandThumb1
								{
									OFFSET -6.133995 -4.388519 7.076070
									CHANNELS 3 Xrotation Yrotation Zrotation
									JOINT RightHandThumb2
									{
										OFFSET -6.037666 -3.485840 3.485847
										CHANNELS 3 Xrotation Yrotation Zrotation
										JOINT RightHandThumb3
										{
											OFFSET -6.496506 -3.750763 3.750761
											CHANNELS 3 Xrotation Yrotation Zrotation
											JOINT RightHandThumb4
											{
												OFFSET -5.616882 -3.242905 3.242910
												CHANNELS 3 Xrotation Yrotation Zrotation
												End Site
												{
													OFFSET 1.254608 7.132141 0.375429
												}
											}
										}
									}
								}
								JOINT RightHandIndex1
								{
									OFFSET -21.310577 -0.490082 6.209344
									CHANNELS 3 Xrotation Yrotation Zrotation
									JOINT RightHandIndex2
									{
										OFFSET -7.536453 0.000000 0.000000
										CHANNELS 3 Xrotation Yrotation Zrotation
										JOINT RightHandIndex3
										{
											OFFSET -7.512344 0.000000 0.000000
											CHANNELS 3 Xrotation Yrotation Zrotation
											JOINT RightHandIndex4
											{
												OFFSET -10.212402 0.000000 0.000001
												CHANNELS 3 Xrotation Yrotation Zrotation
												End Site
												{
													OFFSET 5.180801 8.690506 1.388433
												}
											}
										}
									}
								}
								JOINT RightHandMiddle1
								{
									OFFSET -23.373947 0.000000 0.000001
									CHANNELS 3 Xrotation Yrotation Zrotation
									JOINT RightHandMiddle2
									{
										OFFSET -6.996567 0.000000 0.000000
										CHANNELS 3 Xrotation Yrotation Zrotation
										JOINT RightHandMiddle3
										{
											OFFSET -7.015945 0.000000 0.000000
											CHANNELS 3 Xrotation Yrotation Zrotation
											JOINT RightHandMiddle4
											{
												OFFSET -7.721573 0.000000 0.000000
												CHANNELS 3 Xrotation Yrotation Zrotation
												End Site
												{
													OFFSET 4.651108 6.158463 0.251582
												}
											}
										}
									}
								}
								JOINT RightHandRing1
								{
									OFFSET -22.726120 -0.094986 -6.500475
									CHANNELS 3 Xrotation Yrotation Zrotation
									JOINT RightHandRing2
									{
										OFFSET -6.408615 0.000000 0.000000
										CHANNELS 3 Xrotation Yrotation Zrotation
										JOINT RightHandRing3
										{
											OFFSET -6.150223 0.000000 0.000000
											CHANNELS 3 Xrotation Yrotation Zrotation
											JOINT RightHandRing4
											{
												OFFSET -6.145386 0.000000 0.000000
												CHANNELS 3 Xrotation Yrotation Zrotation
												End Site
												{
													OFFSET 3.671402 4.923981 -0.202372
												}
											}
										}
									}
								}
								JOINT RightHandPinky1
								{
									OFFSET -18.920792 -0.453171 -11.426712
									CHANNELS 3 Xrotation Yrotation Zrotation
									JOINT RightHandPinky2
									{
										OFFSET -4.919586 0.000000 0.000000
										CHANNELS 3 Xrotation Yrotation Zrotation
										JOINT RightHandPinky3
										{
											OFFSET -5.233047 0.000000 0.000000
											CHANNELS 3 Xrotation Yrotation Zrotation
											JOINT RightHandPinky4
											{
												OFFSET -5.571716 0.000000 0.000000
												CHANNELS 3 Xrotation Yrotation Zrotation
												End Site
												{
													OFFSET 3.459808 4.342407 -0.466164
												}
											}
										}
									}
								}
							}
						}
					}
				}
			}
		}
	}
	JOINT LeftUpLeg
	{
		OFFSET 19.899099 -7.885101 -3.429500
		CHANNELS 3 Xrotation Yrotation Zrotation
		JOINT LeftLeg
		{
			OFFSET 1.745560 -36.997807 10.304700
			CHANNELS 3 Xrotation Yrotation Zrotation
			JOINT LeftFoot
			{
				OFFSET -1.745558 -29.803308 -13.615400
				CHANNELS 3 Xrotation Yrotation Zrotation
				JOINT LeftToeBase
				{
					OFFSET 1.181900 -18.539904 15.226099
					CHANNELS 3 Xrotation Yrotation Zrotation
					JOINT LeftToe_End
					{
						OFFSET -0.863701 1.402801 16.534700
						CHANNELS 3 Xrotation Yrotation Zrotation
						End Site
						{
							OFFSET 0.000000 16.616566 0.000000
						}
					}
				}
			}
		}
	}
	JOINT RightUpLeg
	{
		OFFSET -19.899099 -7.885101 -3.429500
		CHANNELS 3 Xrotation Yrotation Zrotation
		JOINT RightLeg
		{
			OFFSET -1.745560 -36.997807 10.304700
			CHANNELS 3 Xrotation Yrotation Zrotation
			JOINT RightFoot
			{
				OFFSET 1.745558 -29.803308 -13.615400
				CHANNELS 3 Xrotation Yrotation Zrotation
				JOINT RightToeBase
				{
					OFFSET -1.181900 -18.539904 15.226099
					CHANNELS 3 Xrotation Yrotation Zrotation
					JOINT RightToe_End
					{
						OFFSET 0.863701 1.402801 16.534700
						CHANNELS 3 Xrotation Yrotation Zrotation
						End Site
						{
							OFFSET 0.000000 16.616566 0.000000
						}
					}
				}
			}
		}
	}
}
MOTION
Frames: 4
Frame Time: 0.033333
0.579799 50.562698 20.949850 0.146166 0.050611 0.848337 10.430273 0.146037 -1.476592 -0.199269 0.213348 -0.355463 -0.199591 0.248548 -0.300881 -1.001769 -1.284342 0.469464 -8.883498 -4.327064 -5.321561 -0.000000 0.000000 0.000000 0.823520 -15.262013 -7.868754 4.751209 -21.211924 -54.857911 0.000001 -62.215517 -0.000014 31.076685 4.334306 41.759486 6.609922 1.798055 20.802945 2.716613 20.172115 -24.388913 -5.536321 29.850543 5.072926 -0.000001 -0.000003 -0.000001 2.039966 10.866053 -13.918729 0.168514 1.396424 -13.761333 0.107173 1.116573 -10.963869 -0.000000 0.000004 -0.000002 1.797141 9.807788 -14.183178 0.205930 1.541159 -15.220947 0.265314 1.744712 -17.292084 -0.000001 -0.000001 0.000003 1.299115 7.334237 -16.511123 0.329954 1.940061 -19.302113 0.233118 1.637779 -16.201262 -0.000001 -0.000003 0.000003 -0.234259 2.805757 -26.912264 0.396824 2.121286 -21.189291 0.083126 0.984446 -9.653150 0.000001 0.000003 0.000002 3.171097 -4.378725 8.782889 -3.950218 37.253365 63.733622 0.000015 55.137938 -0.000005 43.537265 4.741010 -36.277925 -9.383233 -1.612782 -17.601193 3.555892 -24.338711 34.655485 -6.612535 -37.494655 -11.181318 0.000001 -0.000002 -0.000001 2.960290 1.012911 13.530050 0.472469 -2.045703 26.006727 0.059762 -0.744469 9.178811 -0.000002 0.000000 0.000001 0.105514 -3.664635 2.525358 0.584992 -2.261684 29.000334 0.020467 -0.436668 5.368256 0.000000 0.000002 -0.000004 0.456529 -7.645088 4.306341 0.107480 -0.995815 12.320001 0.072410 -0.818890 10.105552 -0.000000 0.000001 -0.000005 -11.162319 -10.227900 7.169812 0.029123 -0.520581 6.403813 0.028653 -0.516381 6.352050 -0.000000 -0.000001 0.000004 -86.376546 -12.021871 20.548776 80.423135 -2.939692 -4.287550 8.678432 -5.939144 -9.536439 -0.103126 0.000002 0.000004 -0.000000 0.000000 -0.000000 -88.134692 13.646030 -16.492110 81.376991 3.364366 2.592629 9.658859 -0.967879 10.698683 -0.191628 0.000001 -0.000000 0.000000 0.000000 -0.000000 
0.592967 50.533813 20.947092 -0.435246 0.085298 0.952937 10.342399 0.126184 -1.457121 0.237421 0.166266 -0.385863 0.236927 0.198768 -0.333595 -1.040487 -1.256244 0.411709 -9.071488 -4.242554 -5.339719 0.000000 0.000000 0.000000 0.817820 -15.385341 -7.897124 3.894225 -20.835750 -55.005183 0.000020 -61.592262 0.000009 31.125315 3.851137 41.597023 6.609927 1.798049 20.802946 2.716624 20.172127 -24.388917 -5.536331 29.850539 5.072923 0.000000 0.000001 0.000000 2.039981 10.866046 -13.918729 0.172200 1.411404 -13.912091 0.109664 1.129381 -11.091407 0.000003 0.000002 -0.000002 1.797155 9.807772 -14.183180 0.208212 1.549476 -15.305354 0.272662 1.768104 -17.531586 -0.000001 0.000001 0.000003 1.299119 7.334220 -16.511127 0.335307 1.955289 -19.459742 0.243094 1.671674 -16.546473 -0.000001 -0.000003 0.000006 -0.234247 2.805743 -26.912267 0.409169 2.152821 -21.520138 0.086733 1.005502 -9.861602 -0.000001 0.000003 0.000002 3.125404 -4.232715 9.193505 -3.973544 37.462689 62.765723 0.000021 54.813398 -0.000010 42.423842 5.010661 -36.692777 -9.383236 -1.612782 -17.601193 3.555916 -24.338720 34.655495 -6.612554 -37.494668 -11.181336 -0.000001 -0.000001 0.000002 2.950514 1.007669 13.700448 0.480084 -2.061190 26.219023 0.059760 -0.744489 9.178807 -0.000001 -0.000001 -0.000001 0.109650 -3.678318 2.695523 0.584987 -2.261669 29.000328 0.020465 -0.436674 5.368261 -0.000001 -0.000000 -0.000007 0.472441 -7.657603 4.476185 0.107482 -0.995794 12.319996 0.072404 -0.818921 10.105536 -0.000000 0.000001 -0.000005 -11.162572 -10.244485 7.339670 0.029123 -0.520585 6.403811 0.028662 -0.516369 6.352058 -0.000001 -0.000003 0.000004 -86.110592 -11.633362 20.283131 80.484647 -3.259192 -4.080709 8.738963 -6.200454 -9.124971 -0.101768 0.000004 -0.000003 -0.000000 0.000000 0.000000 -87.826588 13.104437 -16.835436 81.980213 4.033536 2.640387 9.313451 -0.876161 10.171256 -0.272189 -0.000006 -0.000001 0.000000 -0.000000 -0.000000 
0.607894 50.499237 20.957708 -0.895375 0.144546 1.023395 10.218454 0.107849 -1.435959 0.829825 0.114072 -0.438460 0.829125 0.143883 -0.389334 -1.105128 -1.221151 0.388100 -9.589055 -4.118022 -5.220000 -0.000000 0.000000 0.000000 0.832181 -15.691625 -7.762834 3.048443 -20.241325 -55.101639 0.000031 -61.428126 0.000025 31.171395 3.505855 41.594056 6.609919 1.798062 20.802950 2.716611 20.172118 -24.388912 -5.536327 29.850553 5.072911 0.000003 -0.000004 -0.000003 2.039978 10.866073 -13.918722 0.178267 1.435634 -14.156039 0.113715 1.149869 -11.295207 -0.000003 -0.000001 0.000001 1.797150 9.807802 -14.183172 0.211949 1.563098 -15.443223 0.284808 1.806093 -17.921079 -0.000000 -0.000001 0.000005 1.299112 7.334236 -16.511123 0.344107 1.979991 -19.715802 0.259823 1.726965 -17.110498 0.000001 -0.000001 0.000001 -0.234257 2.805770 -26.912267 0.429721 2.204225 -22.060941 0.092807 1.039676 -10.200648 -0.000000 0.000001 0.000001 3.079672 -4.180983 9.587447 -4.197393 37.683889 61.885489 -0.000028 54.610545 0.000059 41.379663 5.362720 -37.214549 -9.383233 -1.612773 -17.601191 3.555894 -24.338720 34.655478 -6.612529 -37.494658 -11.181332 -0.000002 -0.000002 0.000002 2.953398 0.991753 13.991485 0.493222 -2.087669 26.582084 0.059767 -0.744481 9.178804 -0.000002 -0.000001 -0.000002 0.116824 -3.701700 2.987274 0.585001 -2.261697 29.000321 0.020464 -0.436653 5.368261 0.000001 0.000001 -0.000004 0.499867 -7.678951 4.768017 0.107481 -0.995797 12.320002 0.072412 -0.818902 10.105533 -0.000000 0.000001 -0.000001 -11.163791 -10.272437 7.630695 0.029120 -0.520556 6.403831 0.028654 -0.516382 6.352047 -0.000000 -0.000000 0.000002 -86.085327 -11.242784 20.001726 80.455640 -3.786506 -3.889855 9.147631 -6.292770 -8.744270 -0.130809 0.000516 -0.278980 -0.000000 0.000000 -0.000000 -87.619531 12.484689 -17.185099 82.684474 4.707552 2.675453 8.773061 -0.793324 9.580478 -0.369488 0.000007 -0.021023 -0.000000 -0.000001 0.000000 
0.617197 50.466614 20.976591 -1.112749 0.177008 1.138783 10.076469 0.100112 -1.413798 1.599658 0.081680 -0.534891 1.598771 0.108780 -0.489652 -1.277760 -1.182406 0.415964 -10.786841 -3.954630 -4.904049 0.000000 0.000000 -0.000000 0.866035 -15.998719 -7.420208 2.261261 -19.616828 -55.073243 0.000001 -61.898193 0.000000 31.184164 3.316568 41.802424 6.609919 1.798054 20.802951 2.716621 20.172113 -24.388913 -5.536335 29.850546 5.072924 0.000001 -0.000001 -0.000003 2.039976 10.866057 -13.918745 0.187502 1.471765 -14.519949 0.119888 1.180339 -11.598777 -0.000000 0.000004 -0.000005 1.797144 9.807767 -14.183185 0.217613 1.583436 -15.649394 0.303414 1.862614 -18.502373 -0.000001 0.000002 0.000000 1.299117 7.334217 -16.511127 0.357419 2.016761 -20.097990 0.285787 1.809138 -17.952177 0.000001 0.000001 0.000004 -0.234253 2.805758 -26.912274 0.461310 2.280518 -22.868204 0.102205 1.090697 -10.706596 -0.000001 0.000001 -0.000001 3.022054 -4.292224 9.931270 -4.456756 37.982276 60.974574 0.000046 54.803064 -0.000040 40.331406 5.675272 -37.975954 -9.383240 -1.612764 -17.601196 3.555920 -24.338734 34.655482 -6.612525 -37.494641 -11.181309 -0.000000 -0.000004 0.000006 2.969228 0.962829 14.430566 0.513399 -2.127520 27.130997 0.059770 -0.744478 9.178797 -0.000001 -0.000003 -0.000001 0.127862 -3.736913 3.426880 0.584986 -2.261668 29.000338 0.020480 -0.436674 5.368247 -0.000000 -0.000000 -0.000007 0.541423 -7.710911 5.208120 0.107476 -0.995782 12.320008 0.072409 -0.818912 10.105547 -0.000001 0.000001 -0.000001 -11.166262 -10.314351 8.069829 0.029125 -0.520556 6.403834 0.028656 -0.516390 6.352053 -0.000002 -0.000001 -0.000001 -86.432929 -10.699537 19.609354 80.358794 -4.549580 -3.646924 9.962236 -5.938938 -8.281609 -0.239841 0.005671 -0.907358 -0.000000 -0.000000 -0.000000 -87.707333 11.885016 -17.623302 83.384070 5.584102 2.768157 8.251701 -0.776297 9.082444 -0.464346 0.000013 -0.027265 -0.000000 0.000001 -0.000000 
